<?xml version="1.0" encoding="UTF-8"?>
<svg version="1.1" viewBox="0 0 705.02 800" xmlns="http://www.w3.org/2000/svg">
 <g transform="translate(1768.9 -736.33)">
  <g transform="matrix(.42044 0 0 .42044 -1025.2 890.39)">
   <path d="m-710.29 367.44 311.01 1159.7h-1141.3l234.29-1323.3 577.81 34.345z" fill="#322b1a"/>
   <path d="m-1282 187.63c0 8.0812 0.1015 138.56 0.1015 138.56-43.397 181.37 52.304 334.6 115.06 501.87l137.38 62.629 133.34-34.345 139.4-145.46 52.528-226.27-16.264-137.97 16.264-114.57" fill="#7f4f39"/>
   <path d="m-1031.5 385.62c-24.218 86.213-112.4 149.19-16.162 189.91z" fill="#fff"/>
   <path d="m-1146.7 680.59c39.522-5.7543 73.934-8.3536 111.12 4.0406 48.073-17.145 83.742 12.075 127.28 32.325-92.433 81.696-202.53 22.812-238.4-36.365z" fill="#993c26"/>
   <path d="m-1092.1 694.73 121.22 10.102c-45.652 12.949-77.889 3.3455-121.22-10.102z"/>
   <path d="m-1061.8 599.77-141.42 78.792c78.341 3.5258 122.76 1.7502 177.79-48.487 27.819 73.475 120.32 91.877 191.93 125.26l-143.44-145.46-44.43-2.1366z"/>
   <path d="m-1213.3 274.5 161.62 57.579c-52.147-21.396-143.02 2.873-161.62-57.579z"/>
   <path d="m-753.72 319.96-185.87 26.264c73.115 8.8203 124.81 9.6508 185.87-26.264z"/>
   <path d="m-1164.9 321.98c51.129 6.6511 68.026 16.135 93.944 56.569l-102.03 2.0203z" fill="#fff"/>
   <path d="m-1160.8 372.49c25.278-22.673 15.937-50.744-6.4793-52.773-24.49-2.2169-41.752 24.059-19.785 44.692-19.003 33.143 87.059 15.015 117.63 14.856-12.627-2.0203-91.368-6.7752-91.368-6.7752z"/>
   <path d="m-887.06 356.33c37.434 8.3275 68.354 14.816 94.954 41.416l-69.7 13.132-39.396-5.0508z" fill="#fff"/>
   <path d="m-790.44 399.05-89.557 7.7854c24.841-10.615 20.367-49.078-8.0812-51.518-38.832-3.3306-33.506 37.056-21.264 49.13-20.974 23.255 75.302 10.121 118.9-5.3974z"/>
   <path d="m-722.41 264.4 6.0609 1216.2c170.66 71.594 294.43 65.459 466.69 30.305l-208-1052.8c-4.5267-101.99-48.135-138.23-117.27-205.9"/>
   <path transform="matrix(.98525 -.17109 .17109 .98525 1221.1 497.88)" d="m-1745.5 53.321c0 13.947-13.116 25.254-29.294 25.254s-29.294-11.307-29.294-25.254 13.116-25.254 29.294-25.254 29.294 11.307 29.294 25.254z" fill="#500"/>
   <path transform="matrix(.98525 -.17109 .17109 .98525 1211.2 499.61)" d="m-1731.4 188.68c0 16.179-14.925 29.294-33.335 29.294s-33.335-13.116-33.335-29.294c0-16.179 14.925-29.294 33.335-29.294s33.335 13.116 33.335 29.294z" fill="#500"/>
   <path transform="matrix(.98525 -.17109 .17109 .98525 1201.2 501.33)" d="m-1737.5 249.29c0 9.4842-7.6884 17.173-17.173 17.173s-17.173-7.6884-17.173-17.173 7.6884-17.173 17.173-17.173 17.173 7.6884 17.173 17.173z" fill="#808000"/>
   <path transform="matrix(1.1368 -.19742 .17109 .98525 1441.7 471.88)" d="m-1691 323.03c0 24.547-17.638 44.447-39.396 44.447s-39.396-19.899-39.396-44.447 17.638-44.447 39.396-44.447 39.396 19.899 39.396 44.447z" fill="#808000"/>
   <path transform="matrix(1.3301 -.23098 .17109 .98525 1755.3 405.12)" d="m-1729.4 405.86c0 7.8105-4.5226 14.142-10.102 14.142-5.5789 0-10.102-6.3316-10.102-14.142 0-7.8105 4.5226-14.142 10.102-14.142 5.579 0 10.102 6.3316 10.102 14.142z" fill="#808000"/>
   <rect transform="matrix(.98525 -.17109 .17109 .98525 0 0)" x="-683.16" y="785.11" width="52.528" height="61.619" rx="11.141" ry="52.83" fill="#808000"/>
   <path transform="matrix(.98525 -.17109 .17109 .98525 1153.9 509.54)" d="m-1729.9 438.44c0 4.0447-3.6181 7.3236-8.0812 7.3236s-8.0812-3.2789-8.0812-7.3236 3.6181-7.3236 8.0812-7.3236 8.0812 3.2789 8.0812 7.3236z" fill="#808000"/>
   <path transform="matrix(.98525 -.17109 .17109 .98525 1157 527.28)" d="m-1729.9 438.44c0 4.0447-3.6181 7.3236-8.0812 7.3236s-8.0812-3.2789-8.0812-7.3236 3.6181-7.3236 8.0812-7.3236 8.0812 3.2789 8.0812 7.3236z" fill="#808000"/>
   <path transform="matrix(.98525 -.17109 .17109 .98525 1160.8 548.95)" d="m-1729.9 438.44c0 4.0447-3.6181 7.3236-8.0812 7.3236s-8.0812-3.2789-8.0812-7.3236 3.6181-7.3236 8.0812-7.3236 8.0812 3.2789 8.0812 7.3236z" fill="#808000"/>
   <path transform="matrix(.98525 -.17109 .17109 .98525 1164.6 570.63)" d="m-1729.9 438.44c0 4.0447-3.6181 7.3236-8.0812 7.3236s-8.0812-3.2789-8.0812-7.3236 3.6181-7.3236 8.0812-7.3236 8.0812 3.2789 8.0812 7.3236z" fill="#808000"/>
   <path transform="matrix(.67736 -.11763 .11551 .66519 651.33 824.62)" d="m-1729.9 438.44c0 4.0447-3.6181 7.3236-8.0812 7.3236s-8.0812-3.2789-8.0812-7.3236 3.6181-7.3236 8.0812-7.3236 8.0812 3.2789 8.0812 7.3236z" fill="#000080"/>
   <path transform="matrix(.67736 -.11763 .11551 .66519 654.75 844.32)" d="m-1729.9 438.44c0 4.0447-3.6181 7.3236-8.0812 7.3236s-8.0812-3.2789-8.0812-7.3236 3.6181-7.3236 8.0812-7.3236 8.0812 3.2789 8.0812 7.3236z" fill="#000080"/>
   <path transform="matrix(.67736 -.11763 .11551 .66519 670.52 841.58)" d="m-1729.9 438.44c0 4.0447-3.6181 7.3236-8.0812 7.3236s-8.0812-3.2789-8.0812-7.3236 3.6181-7.3236 8.0812-7.3236 8.0812 3.2789 8.0812 7.3236z" fill="#000080"/>
   <path transform="matrix(.67736 -.11763 .11551 .66519 667.09 821.88)" d="m-1729.9 438.44c0 4.0447-3.6181 7.3236-8.0812 7.3236s-8.0812-3.2789-8.0812-7.3236 3.6181-7.3236 8.0812-7.3236 8.0812 3.2789 8.0812 7.3236z" fill="#000080"/>
   <path transform="matrix(1.3301 -.23098 .17109 .98525 1786.6 399.67)" d="m-1729.4 405.86c0 7.8105-4.5226 14.142-10.102 14.142-5.5789 0-10.102-6.3316-10.102-14.142 0-7.8105 4.5226-14.142 10.102-14.142 5.579 0 10.102 6.3316 10.102 14.142z" fill="#808000"/>
   <path transform="matrix(.98525 -.17109 .17109 .98525 1185.3 504.1)" d="m-1729.9 438.44c0 4.0447-3.6181 7.3236-8.0812 7.3236s-8.0812-3.2789-8.0812-7.3236 3.6181-7.3236 8.0812-7.3236 8.0812 3.2789 8.0812 7.3236z" fill="#808000"/>
   <path transform="matrix(.98525 -.17109 .17109 .98525 1188.4 521.83)" d="m-1729.9 438.44c0 4.0447-3.6181 7.3236-8.0812 7.3236s-8.0812-3.2789-8.0812-7.3236 3.6181-7.3236 8.0812-7.3236 8.0812 3.2789 8.0812 7.3236z" fill="#808000"/>
   <path transform="matrix(.98525 -.17109 .17109 .98525 1192.1 543.51)" d="m-1729.9 438.44c0 4.0447-3.6181 7.3236-8.0812 7.3236s-8.0812-3.2789-8.0812-7.3236 3.6181-7.3236 8.0812-7.3236 8.0812 3.2789 8.0812 7.3236z" fill="#808000"/>
   <path transform="matrix(.98525 -.17109 .17109 .98525 1195.9 565.19)" d="m-1729.9 438.44c0 4.0447-3.6181 7.3236-8.0812 7.3236s-8.0812-3.2789-8.0812-7.3236 3.6181-7.3236 8.0812-7.3236 8.0812 3.2789 8.0812 7.3236z" fill="#808000"/>
   <path transform="matrix(.67736 -.11763 .11551 .66519 682.68 819.17)" d="m-1729.9 438.44c0 4.0447-3.6181 7.3236-8.0812 7.3236s-8.0812-3.2789-8.0812-7.3236 3.6181-7.3236 8.0812-7.3236 8.0812 3.2789 8.0812 7.3236z" fill="#000080"/>
   <path transform="matrix(.67736 -.11763 .11551 .66519 686.1 838.88)" d="m-1729.9 438.44c0 4.0447-3.6181 7.3236-8.0812 7.3236s-8.0812-3.2789-8.0812-7.3236 3.6181-7.3236 8.0812-7.3236 8.0812 3.2789 8.0812 7.3236z" fill="#000080"/>
   <path transform="matrix(.67736 -.11763 .11551 .66519 701.87 836.14)" d="m-1729.9 438.44c0 4.0447-3.6181 7.3236-8.0812 7.3236s-8.0812-3.2789-8.0812-7.3236 3.6181-7.3236 8.0812-7.3236 8.0812 3.2789 8.0812 7.3236z" fill="#000080"/>
   <path transform="matrix(.67736 -.11763 .11551 .66519 698.44 816.43)" d="m-1729.9 438.44c0 4.0447-3.6181 7.3236-8.0812 7.3236s-8.0812-3.2789-8.0812-7.3236 3.6181-7.3236 8.0812-7.3236 8.0812 3.2789 8.0812 7.3236z" fill="#000080"/>
   <path transform="matrix(1.3301 -.23098 .17109 .98525 1818 394.23)" d="m-1729.4 405.86c0 7.8105-4.5226 14.142-10.102 14.142-5.5789 0-10.102-6.3316-10.102-14.142 0-7.8105 4.5226-14.142 10.102-14.142 5.579 0 10.102 6.3316 10.102 14.142z" fill="#808000"/>
   <path transform="matrix(.98525 -.17109 .17109 .98525 1216.6 498.66)" d="m-1729.9 438.44c0 4.0447-3.6181 7.3236-8.0812 7.3236s-8.0812-3.2789-8.0812-7.3236 3.6181-7.3236 8.0812-7.3236 8.0812 3.2789 8.0812 7.3236z" fill="#808000"/>
   <path transform="matrix(.98525 -.17109 .17109 .98525 1219.7 516.39)" d="m-1729.9 438.44c0 4.0447-3.6181 7.3236-8.0812 7.3236s-8.0812-3.2789-8.0812-7.3236 3.6181-7.3236 8.0812-7.3236 8.0812 3.2789 8.0812 7.3236z" fill="#808000"/>
   <path transform="matrix(.98525 -.17109 .17109 .98525 1223.5 538.07)" d="m-1729.9 438.44c0 4.0447-3.6181 7.3236-8.0812 7.3236s-8.0812-3.2789-8.0812-7.3236 3.6181-7.3236 8.0812-7.3236 8.0812 3.2789 8.0812 7.3236z" fill="#808000"/>
   <path transform="matrix(.98525 -.17109 .17109 .98525 1227.3 559.74)" d="m-1729.9 438.44c0 4.0447-3.6181 7.3236-8.0812 7.3236s-8.0812-3.2789-8.0812-7.3236 3.6181-7.3236 8.0812-7.3236 8.0812 3.2789 8.0812 7.3236z" fill="#808000"/>
   <path transform="matrix(.67736 -.11763 .11551 .66519 714.03 813.73)" d="m-1729.9 438.44c0 4.0447-3.6181 7.3236-8.0812 7.3236s-8.0812-3.2789-8.0812-7.3236 3.6181-7.3236 8.0812-7.3236 8.0812 3.2789 8.0812 7.3236z" fill="#000080"/>
   <path transform="matrix(.67736 -.11763 .11551 .66519 717.45 833.43)" d="m-1729.9 438.44c0 4.0447-3.6181 7.3236-8.0812 7.3236s-8.0812-3.2789-8.0812-7.3236 3.6181-7.3236 8.0812-7.3236 8.0812 3.2789 8.0812 7.3236z" fill="#000080"/>
   <path transform="matrix(.67736 -.11763 .11551 .66519 733.22 830.7)" d="m-1729.9 438.44c0 4.0447-3.6181 7.3236-8.0812 7.3236s-8.0812-3.2789-8.0812-7.3236 3.6181-7.3236 8.0812-7.3236 8.0812 3.2789 8.0812 7.3236z" fill="#000080"/>
   <path transform="matrix(.67736 -.11763 .11551 .66519 729.79 810.99)" d="m-1729.9 438.44c0 4.0447-3.6181 7.3236-8.0812 7.3236s-8.0812-3.2789-8.0812-7.3236 3.6181-7.3236 8.0812-7.3236 8.0812 3.2789 8.0812 7.3236z" fill="#000080"/>
   <path d="m-1157.8 854.33 119.2 51.518 150.51-34.345 130.31-140.41c30.119 265.1-32.476 523.21-73.741 783.88-76.846-184.71-183.51-340.95-307.09-494.97z" fill="#7f4f39"/>
   <path d="m-1285.7 473.78c5.2066 138.21 65.798 223.1 93.606 328.08 20.899 78.896 35.386 158.65 36.962 241.92 1.4315 75.652-18.698 144.52-38.023 232.8-19.606 36.32-16.632 63.946-12.122 103.04 28.226-38.451 24.244-73.498 24.244-119.2 47.222-127.79 61.534-263.2 131.32-329.31 66.783 83.553 27.251 171.88 12.122 270.72-26.57 35.254-25.792 61.232-24.244 103.04 23.923-33.544 28.6-61.804 30.304-101.02 26.737-123.68 68.473-215.39 149.5-307.09 144.97-153.49 158.06-236.63 177.79-406.08-47.282 227.94-139.38 358.22-292.94 383.86 6.3954-44.758 16.176-50.667-2.0203-92.934l-74.751 2.0203c-8.7384 42.09-10.556 51.296 14.142 92.934-164.99-55.068-202.03-316.25-225.89-402.78z"/>
   <path transform="translate(1251.4 800)" d="m-2257.7 357.38c0 7.2526-7.2362 13.132-16.162 13.132-8.9262 0-16.162-5.8794-16.162-13.132s7.2362-13.132 16.162-13.132c8.9263 0 16.162 5.8794 16.162 13.132z" fill="#808000"/>
   <path transform="translate(1251.4 800)" d="m-2268.8 390.71c0 7.8105-6.3316 14.142-14.142 14.142s-14.142-6.3316-14.142-14.142 6.3317-14.142 14.142-14.142 14.142 6.3316 14.142 14.142z" fill="#500"/>
   <path transform="translate(1251.4 800)" d="m-2398.1 386.67c0 10.042-7.2362 18.183-16.162 18.183-8.9263 0-16.162-8.1407-16.162-18.183s7.2362-18.183 16.162-18.183c8.9262 0 16.162 8.1407 16.162 18.183z" fill="#000080"/>
   <path transform="translate(1251.4 800)" d="m-2406.2 420.51c0 9.2052-8.593 16.668-19.193 16.668s-19.193-7.4623-19.193-16.668 8.5929-16.668 19.193-16.668c10.6 0 19.193 7.4623 19.193 16.668z" fill="#808000"/>
   <path d="m-1336.6 78.534c-88.17 82.242-144.67 124.53-139.4 240.42-74.847 77.953-98.443 153.69-121.22 254.56-126.91 168.55-26.698 255.37-171.73 398 123.04-67.594 143.6-87.384 141.42-218.19l42.426-58.589-10.102 135.36c-110.85 145.29-51.28 391.51-32.325 612.15 124.37 41.37 241.93 32.339 369.72 24.244-6.4503-326.54-25.896-651.86-44.447-977.83l42.917-299.01 29.814-101.02"/>
   <path d="m-1389.1 230.06 870.75 76.772 8.0813-230.31-866.71-50.508z" fill="#993c26"/>
   <path d="m-1362.8 104.8-303.05 666.7c3.1916 64.047 0.7449 63.862 34.345 10.102l294.96-674.78" fill="#d7d0ab"/>
   <path d="m-1314.4 102.78-278.8 638.42c-0.2215 48.419 4 35.982 30.305 4.0406l268.7-644.48" fill="#d7d0ab"/>
   <path transform="translate(1251.4 800)" d="m-2640.5-206.29c0 21.2-17.186 38.386-38.386 38.386s-38.386-17.186-38.386-38.386 17.186-38.386 38.386-38.386 38.386 17.186 38.386 38.386z" fill="#808000"/>
   <path transform="matrix(.99363 -.11266 .11266 .99363 1239 511.25)" d="m-2568.8-40.118c0 5.3-6.7839 9.5964-15.152 9.5964s-15.152-4.2965-15.152-9.5964 6.7839-9.5964 15.152-9.5964 15.152 4.2965 15.152 9.5964z" fill="#808000"/>
   <path transform="matrix(.99363 -.11266 .11266 .99363 1233.5 511.88)" d="m-2558.7 3.8238c0 16.737-8.8191 30.305-19.698 30.305s-19.698-13.568-19.698-30.305 8.8191-30.305 19.698-30.305 19.698 13.568 19.698 30.305z" fill="#993c26"/>
   <path transform="matrix(.99363 -.11266 .11266 .99363 1234 511.82)" d="m-2560.7 59.382c0 10.042-8.1407 18.183-18.183 18.183-10.042 0-18.183-8.1407-18.183-18.183s8.1407-18.183 18.183-18.183c10.042 0 18.183 8.1407 18.183 18.183z" fill="#000080"/>
   <rect transform="matrix(.99363 -.11266 .11266 .99363 0 0)" x="-1434.2" y="729.19" width="47.477" height="31.315" rx="11.141" ry="52.83" fill="#fff"/>
   <path transform="matrix(.99363 -.11266 .11266 .99363 1237 511.48)" d="m-2563.8 139.18c0 10.042-8.1407 18.183-18.183 18.183-10.042 0-18.183-8.1407-18.183-18.183s8.1407-18.183 18.183-18.183c10.042 0 18.183 8.1407 18.183 18.183z" fill="#500"/>
   <path d="m-1061.8-291.18c-167.66-209.48-416.46 73.754-602.05 179.81 163.29 166.42 324.56 264.85 535.38 272.74l-56.568-347.49z" fill="#d7d0ab"/>
   <path d="m-1143.6 163.39 1051.5-105.06c-325.54-340.49-865.36-584.63-1108.1-246.48z" fill="#322b1a"/>
   <path d="m-1292.1-162.04a5.0005 5.0005 0 0 0 -4.5312 5.8438l5.0937 31.719-17.5 19.188a5.0005 5.0005 0 1 0 7.375 6.75l12.156-13.313 2.4687 15.281a5.0014 5.0014 0 1 0 9.875 -1.5938l-3.7187-23.125 21.656-23.719a5.0005 5.0005 0 0 0 -4.0312 -8.4375 5.0005 5.0005 0 0 0 -3.3438 1.6875l-16.312 17.875-3.8437-23.875a5.0005 5.0005 0 0 0 -5.3438 -4.2812z" color="#000000" style="block-progression:tb;text-indent:0;text-transform:none"/>
   <path transform="matrix(1 0 0 .77638 0 210.64)" d="m-1318.8 934.93c0 2.371-1.3568 4.2931-3.0304 4.2931-1.6737 0-3.0305-1.9221-3.0305-4.2931s1.3568-4.2932 3.0305-4.2932c1.6736 0 3.0304 1.9221 3.0304 4.2932z" fill="#fff"/>
   <path transform="matrix(1 0 0 .77638 16 210.64)" d="m-1318.8 934.93c0 2.371-1.3568 4.2931-3.0304 4.2931-1.6737 0-3.0305-1.9221-3.0305-4.2931s1.3568-4.2932 3.0305-4.2932c1.6736 0 3.0304 1.9221 3.0304 4.2932z" fill="#fff"/>
   <path transform="matrix(1 0 0 .77638 16 221.5)" d="m-1318.8 934.93c0 2.371-1.3568 4.2931-3.0304 4.2931-1.6737 0-3.0305-1.9221-3.0305-4.2931s1.3568-4.2932 3.0305-4.2932c1.6736 0 3.0304 1.9221 3.0304 4.2932z" fill="#fff"/>
   <path transform="matrix(1 0 0 .77638 0 221.5)" d="m-1318.8 934.93c0 2.371-1.3568 4.2931-3.0304 4.2931-1.6737 0-3.0305-1.9221-3.0305-4.2931s1.3568-4.2932 3.0305-4.2932c1.6736 0 3.0304 1.9221 3.0304 4.2932z" fill="#fff"/>
   <path transform="matrix(1 0 0 .77638 8 216.85)" d="m-1318.8 934.93c0 2.371-1.3568 4.2931-3.0304 4.2931-1.6737 0-3.0305-1.9221-3.0305-4.2931s1.3568-4.2932 3.0305-4.2932c1.6736 0 3.0304 1.9221 3.0304 4.2932z" fill="#fff"/>
   <path transform="matrix(1 0 0 .77638 -9.5964 130.33)" d="m-1318.8 934.93c0 2.371-1.3568 4.2931-3.0304 4.2931-1.6737 0-3.0305-1.9221-3.0305-4.2931s1.3568-4.2932 3.0305-4.2932c1.6736 0 3.0304 1.9221 3.0304 4.2932z" fill="#fff"/>
   <path transform="matrix(1 0 0 .77638 6.4036 130.33)" d="m-1318.8 934.93c0 2.371-1.3568 4.2931-3.0304 4.2931-1.6737 0-3.0305-1.9221-3.0305-4.2931s1.3568-4.2932 3.0305-4.2932c1.6736 0 3.0304 1.9221 3.0304 4.2932z" fill="#fff"/>
   <path transform="matrix(1 0 0 .77638 6.4036 141.2)" d="m-1318.8 934.93c0 2.371-1.3568 4.2931-3.0304 4.2931-1.6737 0-3.0305-1.9221-3.0305-4.2931s1.3568-4.2932 3.0305-4.2932c1.6736 0 3.0304 1.9221 3.0304 4.2932z" fill="#fff"/>
   <path transform="matrix(1 0 0 .77638 -9.5964 141.2)" d="m-1318.8 934.93c0 2.371-1.3568 4.2931-3.0304 4.2931-1.6737 0-3.0305-1.9221-3.0305-4.2931s1.3568-4.2932 3.0305-4.2932c1.6736 0 3.0304 1.9221 3.0304 4.2932z" fill="#fff"/>
   <path transform="matrix(1 0 0 .77638 -1.5964 136.54)" d="m-1318.8 934.93c0 2.371-1.3568 4.2931-3.0304 4.2931-1.6737 0-3.0305-1.9221-3.0305-4.2931s1.3568-4.2932 3.0305-4.2932c1.6736 0 3.0304 1.9221 3.0304 4.2932z" fill="#fff"/>
   <path transform="matrix(1.7727 0 0 2.0312 896.4 -356.71)" d="m-1150.6 346.27c0 2.2316-2.4874 4.0406-5.5558 4.0406s-5.5558-1.809-5.5558-4.0406 2.4874-4.0406 5.5558-4.0406 5.5558 1.809 5.5558 4.0406z" fill="#fff"/>
   <path transform="matrix(1.7727 0 0 2.0312 1177.7 -320.34)" d="m-1150.6 346.27c0 2.2316-2.4874 4.0406-5.5558 4.0406s-5.5558-1.809-5.5558-4.0406 2.4874-4.0406 5.5558-4.0406 5.5558 1.809 5.5558 4.0406z" fill="#fff"/>
  </g>
 </g>
</svg>
